<mxfile host="drawio-plugin" modified="2021-12-03T14:53:20.249Z" agent="5.0 (Windows NT 6.2; Win64; x64) AppleWebKit/537.36 (KHTML, like Gecko) Chrome/89.0.4389.114 Safari/537.36" etag="8lEV__oy53x8pJNJUQyF" version="14.7.4" type="embed"><diagram id="23iRSUPoRavnBvh4doch" name="Page-1"><mxGraphModel dx="1662" dy="722" grid="1" gridSize="10" guides="1" tooltips="1" connect="1" arrows="1" fold="1" page="1" pageScale="1" pageWidth="827" pageHeight="1169" math="0" shadow="0"><root><mxCell id="0"/><mxCell id="1" parent="0"/><mxCell id="4" value="" style="edgeStyle=orthogonalEdgeStyle;rounded=0;orthogonalLoop=1;jettySize=auto;html=1;" edge="1" parent="1" source="2" target="3"><mxGeometry relative="1" as="geometry"/></mxCell><mxCell id="2" value="Order Placed" style="rounded=0;whiteSpace=wrap;html=1;" vertex="1" parent="1"><mxGeometry x="330" y="20" width="120" height="30" as="geometry"/></mxCell><mxCell id="6" value="" style="edgeStyle=orthogonalEdgeStyle;rounded=0;orthogonalLoop=1;jettySize=auto;html=1;" edge="1" parent="1" source="3" target="5"><mxGeometry relative="1" as="geometry"/></mxCell><mxCell id="3" value="DB action before payment" style="whiteSpace=wrap;html=1;rounded=0;" vertex="1" parent="1"><mxGeometry x="330" y="70" width="120" height="60" as="geometry"/></mxCell><mxCell id="8" value="" style="edgeStyle=orthogonalEdgeStyle;rounded=0;orthogonalLoop=1;jettySize=auto;html=1;" edge="1" parent="1" source="5" target="7"><mxGeometry relative="1" as="geometry"/></mxCell><mxCell id="5" value="&lt;b&gt;&lt;u&gt;blmkt_orders&lt;/u&gt;&lt;/b&gt;&lt;br&gt;&lt;br&gt;Add order with order_status=10 (pending)" style="shape=cylinder;whiteSpace=wrap;html=1;boundedLbl=1;backgroundOutline=1;rounded=0;labelPosition=center;verticalLabelPosition=middle;align=center;verticalAlign=middle;" vertex="1" parent="1"><mxGeometry x="317.5" y="160" width="145" height="100" as="geometry"/></mxCell><mxCell id="11" value="" style="edgeStyle=orthogonalEdgeStyle;rounded=0;orthogonalLoop=1;jettySize=auto;html=1;" edge="1" parent="1" source="7" target="10"><mxGeometry relative="1" as="geometry"/></mxCell><mxCell id="7" value="&lt;b&gt;&lt;u&gt;blmkt_order_details&lt;/u&gt;&lt;br&gt;&lt;/b&gt;&lt;br&gt;Add order details with order_id=last_insert_id() from blmkt_orders" style="shape=cylinder;whiteSpace=wrap;html=1;boundedLbl=1;backgroundOutline=1;rounded=0;" vertex="1" parent="1"><mxGeometry x="318.5" y="300" width="142.5" height="120" as="geometry"/></mxCell><mxCell id="13" value="" style="edgeStyle=orthogonalEdgeStyle;rounded=0;orthogonalLoop=1;jettySize=auto;html=1;" edge="1" parent="1" source="10" target="12"><mxGeometry relative="1" as="geometry"/></mxCell><mxCell id="10" value="Initiate payment -&amp;gt; send user to PayPro checkout with&lt;br&gt;Order_ID as custom variable" style="whiteSpace=wrap;html=1;rounded=0;" vertex="1" parent="1"><mxGeometry x="329" y="460" width="120" height="80" as="geometry"/></mxCell><mxCell id="15" value="" style="edgeStyle=orthogonalEdgeStyle;rounded=0;orthogonalLoop=1;jettySize=auto;html=1;" edge="1" parent="1" source="12" target="14"><mxGeometry relative="1" as="geometry"/></mxCell><mxCell id="12" value="for checkout details:&lt;br&gt;checkout_process_create_ subscription_onetime_paypro.drawio" style="ellipse;shape=cloud;whiteSpace=wrap;html=1;rounded=0;" vertex="1" parent="1"><mxGeometry x="254.25" y="585" width="269.5" height="127" as="geometry"/></mxCell><mxCell id="14" value="See IPN Handler for next steps &lt;br&gt;on successfull payment" style="ellipse;shape=cloud;whiteSpace=wrap;html=1;strokeColor=#f0f0f0;fillColor=#2a2a2a;" vertex="1" parent="1"><mxGeometry x="274" y="738" width="230" height="100" as="geometry"/></mxCell></root></mxGraphModel></diagram></mxfile>